<svg width="100" height="100" viewBox="0 0 100 100" fill="none" xmlns="http://www.w3.org/2000/svg">
<path d="M79.1654 54.1667C78.0603 54.1667 77.0005 54.6057 76.2191 55.3871C75.4377 56.1685 74.9987 57.2283 74.9987 58.3334V59.9167L68.832 53.7501C66.6546 51.5898 63.7117 50.3777 60.6445 50.3777C57.5773 50.3777 54.6344 51.5898 52.457 53.7501L49.5404 56.6667L39.207 46.3334C36.9992 44.2317 34.0677 43.0596 31.0195 43.0596C27.9713 43.0596 25.0399 44.2317 22.832 46.3334L16.6654 52.5001V29.1667C16.6654 28.0617 17.1044 27.0018 17.8858 26.2204C18.6672 25.439 19.727 25.0001 20.832 25.0001H49.9987C51.1038 25.0001 52.1636 24.5611 52.945 23.7797C53.7264 22.9983 54.1654 21.9385 54.1654 20.8334C54.1654 19.7283 53.7264 18.6685 52.945 17.8871C52.1636 17.1057 51.1038 16.6667 49.9987 16.6667H20.832C17.5168 16.6667 14.3374 17.9837 11.9932 20.3279C9.64899 22.6721 8.33203 25.8515 8.33203 29.1667V79.1667C8.33203 82.4819 9.64899 85.6614 11.9932 88.0056C14.3374 90.3498 17.5168 91.6667 20.832 91.6667H70.832C74.1472 91.6667 77.3267 90.3498 79.6709 88.0056C82.0151 85.6614 83.332 82.4819 83.332 79.1667V58.3334C83.332 57.2283 82.8931 56.1685 82.1116 55.3871C81.3303 54.6057 80.2704 54.1667 79.1654 54.1667ZM20.832 83.3334C19.727 83.3334 18.6672 82.8944 17.8858 82.113C17.1044 81.3316 16.6654 80.2718 16.6654 79.1667V64.2917L28.7487 52.2084C29.3608 51.6251 30.174 51.2997 31.0195 51.2997C31.8651 51.2997 32.6782 51.6251 33.2904 52.2084L46.4987 65.4167L64.4154 83.3334H20.832ZM74.9987 79.1667C74.9927 79.9643 74.7297 80.7388 74.2487 81.3751L55.457 62.5001L58.3737 59.5834C58.6724 59.2785 59.029 59.0363 59.4225 58.8709C59.816 58.7056 60.2385 58.6204 60.6654 58.6204C61.0922 58.6204 61.5147 58.7056 61.9083 58.8709C62.3018 59.0363 62.6583 59.2785 62.957 59.5834L74.9987 71.7084V79.1667ZM94.6237 17.8751L82.1237 5.37506C81.7274 4.99572 81.2602 4.69837 80.7487 4.50006C79.7343 4.08331 78.5965 4.08331 77.582 4.50006C77.0706 4.69837 76.6033 4.99572 76.207 5.37506L63.707 17.8751C62.9224 18.6597 62.4817 19.7238 62.4817 20.8334C62.4817 21.943 62.9224 23.0071 63.707 23.7917C64.4916 24.5763 65.5558 25.0171 66.6654 25.0171C67.775 25.0171 68.8391 24.5763 69.6237 23.7917L74.9987 18.3751V41.6667C74.9987 42.7718 75.4377 43.8316 76.2191 44.613C77.0005 45.3944 78.0603 45.8334 79.1654 45.8334C80.2704 45.8334 81.3303 45.3944 82.1116 44.613C82.8931 43.8316 83.332 42.7718 83.332 41.6667V18.3751L88.707 23.7917C89.0944 24.1823 89.5552 24.4922 90.063 24.7038C90.5707 24.9153 91.1153 25.0242 91.6654 25.0242C92.2154 25.0242 92.76 24.9153 93.2678 24.7038C93.7755 24.4922 94.2364 24.1823 94.6237 23.7917C95.0142 23.4044 95.3242 22.9435 95.5358 22.4358C95.7473 21.928 95.8562 21.3834 95.8562 20.8334C95.8562 20.2833 95.7473 19.7387 95.5358 19.231C95.3242 18.7232 95.0142 18.2624 94.6237 17.8751Z" fill="#515151"/>
</svg>
