<svg width="53" height="55" viewBox="0 0 53 55" fill="none" xmlns="http://www.w3.org/2000/svg">
<path d="M13.3007 20.0007C0.438324 32.4237 9.29984 42.2051 10.3746 43.3177C10.4419 43.3876 10.5482 43.4838 10.6893 43.5994C14.6651 33.7333 23.7748 24.894 23.7748 24.894C19.4727 29.8257 17.071 40.5297 16.0175 46.4935C20.1654 47.9853 25.9194 48.4554 31.0872 43.4637C40.0147 34.8405 30.1993 23.2647 45.7646 13.4383C45.7653 13.4389 26.1637 7.57829 13.3007 20.0007Z" fill="#575757"/>
<path d="M7 52.0001L10.5 43.0001C13.9493 35.0667 20.254 28.561 23.1763 25.4529C23.7252 24.3009 24.1858 23.5785 24.5 23.5C25.1203 23.3449 24.4901 24.0556 23.1763 25.4529C20.9298 30.1679 17.2055 42.0799 16 46.5L14 55L7 52.0001Z" fill="#C2C2C2"/>
</svg>
