<svg width="34" height="35" viewBox="0 0 34 35" fill="none" xmlns="http://www.w3.org/2000/svg">
<path d="M0.89275 14.1381L1.19222 2.6679C1.22565 1.38535 2.20222 0.353034 3.41557 0.317535L14.2665 0.000969274C14.9003 -0.0177685 15.5 0.235785 15.9469 0.708182L33.3311 19.085C34.223 20.0277 34.223 21.5616 33.3311 22.5043L22.1808 34.2911C21.287 35.2362 19.8401 35.2364 18.9461 34.2912L1.56177 15.9145C1.11937 15.4468 0.875473 14.7992 0.89275 14.1381ZM5.86106 11.0671C7.38107 12.6738 9.84114 12.674 11.3612 11.0671C12.8776 9.46411 12.8776 6.85584 11.3612 5.25293C9.84122 3.64614 7.38114 3.64606 5.86106 5.25293C4.34472 6.85584 4.34472 9.46411 5.86106 11.0671Z" fill="#575757"/>
</svg>
